G04*
G04 #@! TF.GenerationSoftware,Altium Limited,CircuitStudio,1.5.2 (30)*
G04*
G04 Layer_Physical_Order=1*
G04 Layer_Color=6120410*
%FSLAX24Y24*%
%MOIN*%
G70*
G01*
G75*
%ADD10R,0.0217X0.0177*%
%ADD11R,0.0354X0.0236*%
%ADD12R,0.0354X0.0315*%
%ADD13R,0.0512X0.0335*%
%ADD14R,0.0177X0.0217*%
%ADD15R,0.0315X0.0098*%
%ADD16R,0.0079X0.0630*%
%ADD17R,0.0335X0.0295*%
%ADD18R,0.0157X0.0118*%
%ADD19R,0.0157X0.0256*%
%ADD20R,0.0071X0.0150*%
%ADD21R,0.0150X0.0071*%
%ADD22R,0.0079X0.0138*%
%ADD23R,0.0236X0.0394*%
%ADD24R,0.0197X0.0276*%
%ADD25R,0.0335X0.0098*%
%ADD26R,0.0551X0.0642*%
%ADD27R,0.0236X0.0157*%
%ADD28C,0.0110*%
%ADD29R,0.0315X0.0709*%
%ADD30R,0.0295X0.0110*%
%ADD31R,0.0118X0.0315*%
%ADD32R,0.0315X0.0118*%
%ADD33R,0.0394X0.0787*%
%ADD34C,0.0100*%
%ADD35C,0.0060*%
%ADD36C,0.0150*%
%ADD37C,0.0250*%
%ADD38C,0.0236*%
%ADD39C,0.0080*%
%ADD40C,0.0083*%
%ADD41C,0.0803*%
%ADD42C,0.0100*%
%ADD43C,0.0250*%
%ADD44C,0.0300*%
G36*
X504250Y356920D02*
X504348Y356822D01*
X504378Y356802D01*
X504413Y356795D01*
X504423D01*
Y356107D01*
X504622D01*
Y356183D01*
X504668Y356202D01*
X504748Y356122D01*
X504777Y356102D01*
X504813Y356095D01*
X504874D01*
Y356078D01*
X504916D01*
X504935Y356032D01*
X504817Y355913D01*
X504630D01*
Y355776D01*
X504580Y355749D01*
X504573Y355754D01*
Y355913D01*
X504275D01*
Y355577D01*
X504235Y355559D01*
X504235D01*
Y355401D01*
X504424D01*
Y355301D01*
X504235D01*
Y355143D01*
X504266D01*
Y354406D01*
X504216Y354385D01*
X504140Y354461D01*
Y354621D01*
X504170D01*
Y354809D01*
X503971D01*
Y354909D01*
X504170D01*
Y355044D01*
X504180D01*
Y355203D01*
X503991D01*
Y355303D01*
X504180D01*
Y355438D01*
Y355596D01*
X503991D01*
Y355646D01*
X503941D01*
Y355855D01*
X503837D01*
X503798Y355903D01*
X503806Y355942D01*
X503791Y356014D01*
X503780Y356031D01*
X503804Y356075D01*
X503954D01*
X503968Y356078D01*
X504171D01*
Y356275D01*
Y356471D01*
Y356668D01*
Y356886D01*
X504199Y356925D01*
X504250Y356920D01*
D02*
G37*
G36*
X502067Y358317D02*
X502108Y358289D01*
X502116Y358237D01*
X502113Y358230D01*
X502060Y358149D01*
X502040Y358050D01*
X502060Y357951D01*
X502116Y357866D01*
X502201Y357810D01*
X502300Y357790D01*
X502399Y357810D01*
X502484Y357866D01*
X502533Y357850D01*
Y357544D01*
X502988D01*
X503025Y357513D01*
Y357504D01*
X503047D01*
X503072Y357454D01*
X503060Y357438D01*
X502897D01*
Y357382D01*
X502787D01*
X502787Y357382D01*
X502744Y357373D01*
X502708Y357349D01*
X502536Y357177D01*
X502511Y357140D01*
X502503Y357097D01*
X502503Y357097D01*
Y356903D01*
X502503Y356903D01*
X502511Y356860D01*
X502536Y356823D01*
X502740Y356619D01*
X502740Y356619D01*
X502777Y356594D01*
X502820Y356586D01*
X502820Y356586D01*
X502957D01*
Y356569D01*
X503011D01*
X503016Y356561D01*
X503153Y356424D01*
Y356273D01*
X503113Y356248D01*
X503113Y356248D01*
X503113D01*
X503113Y356248D01*
Y356065D01*
X503075Y356034D01*
X503050Y356039D01*
X503007Y356030D01*
X502966Y356047D01*
X502957Y356067D01*
X502940Y356149D01*
X502884Y356234D01*
X502799Y356290D01*
X502700Y356310D01*
X502601Y356290D01*
X502516Y356234D01*
X502460Y356149D01*
X502440Y356050D01*
X502460Y355951D01*
X502516Y355866D01*
X502582Y355822D01*
X502567Y355772D01*
X502257D01*
Y355756D01*
X501984D01*
X501979Y355806D01*
X502000Y355810D01*
X502084Y355866D01*
X502140Y355951D01*
X502160Y356050D01*
X502140Y356149D01*
X502084Y356234D01*
X502000Y356290D01*
X501900Y356310D01*
X501800Y356290D01*
X501758Y356262D01*
X501708Y356289D01*
Y357968D01*
X501783Y357999D01*
X501879Y358073D01*
X501953Y358170D01*
X502000Y358282D01*
X502005Y358319D01*
X502057Y358332D01*
X502067Y358317D01*
D02*
G37*
G36*
X505131Y358991D02*
X505526D01*
Y358009D01*
X505476Y357982D01*
X505440Y358006D01*
X505368Y358020D01*
X505296Y358006D01*
X505289Y358001D01*
X505245Y358025D01*
Y358153D01*
X505120D01*
Y358018D01*
X505020D01*
Y358153D01*
X505012D01*
Y358210D01*
X505012Y358211D01*
X505020Y358250D01*
Y358734D01*
X505012Y358773D01*
X505003Y358787D01*
X504989Y358807D01*
X504989Y358807D01*
X504941Y358856D01*
Y359031D01*
X505016D01*
Y359091D01*
X505131D01*
Y358991D01*
D02*
G37*
G36*
X502554Y353512D02*
X502557Y353497D01*
X502598Y353436D01*
X502659Y353395D01*
X502731Y353381D01*
X502792Y353393D01*
X502842Y353366D01*
Y353354D01*
X503060D01*
Y353304D01*
X503110D01*
Y353126D01*
X503278D01*
Y353305D01*
X503328Y353326D01*
X503337Y353318D01*
X503366Y353298D01*
X503380Y353295D01*
Y353268D01*
Y353071D01*
X503485D01*
Y352902D01*
X503251D01*
Y352744D01*
X503440D01*
Y352644D01*
X503251D01*
Y352485D01*
X503213Y352458D01*
X502199D01*
X502157Y352496D01*
X502154Y352502D01*
X502157Y352528D01*
X502142Y352649D01*
X502123Y352693D01*
X502394Y352964D01*
X502435Y353025D01*
X502438Y353037D01*
X502450Y353098D01*
Y353470D01*
X502506Y353526D01*
X502554Y353512D01*
D02*
G37*
G36*
X505526Y356954D02*
Y352992D01*
X505421Y352978D01*
X505309Y352932D01*
X505213Y352858D01*
X505139Y352761D01*
X505092Y352649D01*
X505076Y352528D01*
X505080Y352502D01*
X505077Y352496D01*
X505035Y352458D01*
X503683D01*
X503647Y352500D01*
X503658Y352525D01*
X503943D01*
Y352694D01*
X503993Y352723D01*
X504050Y352711D01*
X504122Y352726D01*
X504183Y352767D01*
X504204Y352798D01*
X504394D01*
X504433Y352806D01*
X504466Y352828D01*
X504597Y352959D01*
X504762D01*
X504787Y352919D01*
X504787Y352919D01*
Y352919D01*
X504787Y352919D01*
X504945D01*
Y353107D01*
X504995D01*
Y353157D01*
X505203D01*
Y353296D01*
X505203D01*
X505163Y353313D01*
Y353456D01*
X505200Y353486D01*
X505282Y353502D01*
X505351Y353549D01*
X505398Y353618D01*
X505414Y353700D01*
X505398Y353782D01*
X505351Y353851D01*
X505282Y353898D01*
X505200Y353914D01*
X505132Y353901D01*
X505077Y353920D01*
X505051Y353958D01*
Y353989D01*
X505066Y354011D01*
X505139Y354084D01*
X505166Y354089D01*
X505169Y354091D01*
X505185Y354094D01*
X505246Y354135D01*
X505287Y354196D01*
X505302Y354268D01*
X505296Y354296D01*
X505330Y354346D01*
X505330D01*
Y355175D01*
X505251D01*
Y355254D01*
X505268Y355279D01*
X505282Y355351D01*
X505279Y355367D01*
X505404Y355492D01*
X505424Y355522D01*
X505431Y355557D01*
Y356470D01*
X505424Y356505D01*
X505404Y356535D01*
X505359Y356580D01*
X505349Y356628D01*
X505349D01*
X505349Y356628D01*
Y356728D01*
X505091D01*
Y356828D01*
X505349D01*
Y356896D01*
X505365Y356935D01*
X505390Y356947D01*
X505440Y356957D01*
X505476Y356981D01*
X505526Y356954D01*
D02*
G37*
G36*
X501800Y355810D02*
X501839Y355802D01*
X501848Y355756D01*
X501848Y355756D01*
X501848Y355756D01*
Y355599D01*
X501808D01*
Y355500D01*
X502076D01*
Y355400D01*
X501808D01*
Y355300D01*
X501848D01*
Y355144D01*
Y354947D01*
X501974D01*
Y354830D01*
X501815D01*
Y354494D01*
X502112D01*
X502129Y354454D01*
Y354454D01*
X502268D01*
Y354662D01*
Y354870D01*
X502178D01*
Y354947D01*
X502257D01*
Y354930D01*
X502583D01*
Y355351D01*
X502683D01*
Y354930D01*
X503008D01*
Y354947D01*
X503100D01*
X503110Y354931D01*
X503165Y354877D01*
X503146Y354830D01*
X502957D01*
Y354568D01*
X502949Y354564D01*
X502899Y354592D01*
Y354830D01*
X502602D01*
Y354494D01*
X502649D01*
Y354172D01*
X502637Y354170D01*
X502575Y354129D01*
X502182Y353736D01*
X502136Y353755D01*
Y353933D01*
Y354211D01*
X501780D01*
Y353933D01*
Y353677D01*
Y353422D01*
Y353166D01*
X501997D01*
X502016Y353119D01*
X501856Y352960D01*
X501812Y352978D01*
X501708Y352992D01*
Y355811D01*
X501758Y355838D01*
X501800Y355810D01*
D02*
G37*
G36*
X502324Y361744D02*
X502354Y361695D01*
X502346Y361650D01*
X502360Y361578D01*
X502401Y361517D01*
X502462Y361476D01*
X502534Y361462D01*
X502606Y361476D01*
X502668Y361517D01*
X502709Y361578D01*
X502723Y361650D01*
X502715Y361690D01*
X502762Y361737D01*
X503126D01*
X503143Y361741D01*
X503186Y361714D01*
X503193Y361705D01*
Y361482D01*
X503490D01*
Y361670D01*
X503497Y361675D01*
X503547Y361648D01*
Y361482D01*
X503844D01*
Y361635D01*
X503855Y361642D01*
X503905Y361616D01*
Y361491D01*
X504112D01*
Y361650D01*
X504212D01*
Y361491D01*
X504384D01*
Y361289D01*
X504541D01*
Y361249D01*
X504650D01*
Y361507D01*
X504750D01*
Y361249D01*
X504859D01*
Y361289D01*
X505016D01*
Y361294D01*
X505037Y361307D01*
X505066Y361315D01*
X505120Y361279D01*
X505192Y361265D01*
X505264Y361279D01*
X505325Y361320D01*
X505366Y361381D01*
X505380Y361454D01*
X505375Y361481D01*
X505416Y361531D01*
X505455D01*
Y361653D01*
X505461Y361660D01*
X505494Y361662D01*
X505526Y361634D01*
Y360766D01*
X505131D01*
Y360666D01*
X505056D01*
Y360766D01*
X504619D01*
Y360666D01*
X503105D01*
Y359091D01*
X503105Y359091D01*
X504659D01*
Y359031D01*
X504734D01*
Y358813D01*
X504734Y358813D01*
X504742Y358773D01*
X504764Y358739D01*
X504813Y358691D01*
Y358425D01*
X504809D01*
Y358250D01*
X504709D01*
Y358425D01*
X504648D01*
X504466Y358607D01*
X504437Y358627D01*
X504402Y358634D01*
X503227D01*
X503192Y358627D01*
X503162Y358607D01*
X502970Y358415D01*
X502968Y358413D01*
X502811D01*
Y358165D01*
X502711D01*
Y358413D01*
X502493D01*
Y358288D01*
X502443Y358261D01*
X502399Y358290D01*
X502379Y358294D01*
X502356Y358350D01*
X502374Y358378D01*
X502389Y358450D01*
X502374Y358522D01*
X502333Y358583D01*
X502272Y358624D01*
X502200Y358639D01*
X502128Y358624D01*
X502067Y358583D01*
X502043Y358548D01*
X501987Y358554D01*
X501953Y358635D01*
X501879Y358732D01*
X501783Y358806D01*
X501708Y358837D01*
Y359106D01*
X501803Y359145D01*
X501908Y359226D01*
X501988Y359331D01*
X502039Y359453D01*
X502056Y359583D01*
X502039Y359714D01*
X501988Y359836D01*
X501908Y359941D01*
X501803Y360022D01*
X501708Y360061D01*
Y361452D01*
X501933D01*
Y361670D01*
X501983D01*
Y361720D01*
X502271D01*
X502304Y361747D01*
X502324Y361744D01*
D02*
G37*
G36*
X503084Y362819D02*
X503598D01*
X503598Y362819D01*
X503598D01*
X503631D01*
X503636Y362819D01*
X503641Y362819D01*
X503648Y362819D01*
D01*
X503648D01*
Y362819D01*
X504149D01*
X504149Y362819D01*
Y362819D01*
X504149Y362819D01*
X504194Y362805D01*
Y362628D01*
X504123Y362557D01*
X503945D01*
Y362530D01*
X503844D01*
Y362606D01*
X503580D01*
X503554Y362606D01*
X503552Y362609D01*
X503552Y362610D01*
X503530Y362646D01*
X503530D01*
X503526Y362646D01*
X503526Y362646D01*
X503526Y362646D01*
X503526D01*
X503525D01*
X503525Y362646D01*
X503524Y362646D01*
X503524D01*
X503523D01*
X503523D01*
X503523D01*
X503523D01*
D01*
X503476Y362646D01*
X503391D01*
Y362438D01*
X503341D01*
Y362388D01*
X503153D01*
Y362261D01*
X503128Y362226D01*
X503106Y362222D01*
X502977D01*
X502905Y362294D01*
Y362837D01*
X502891Y362909D01*
X502877Y362930D01*
X502850Y362971D01*
Y363018D01*
X502916Y363084D01*
X503084D01*
Y362819D01*
D02*
G37*
G36*
X505180Y364136D02*
X505293Y364089D01*
X505391Y364015D01*
X505465Y363917D01*
X505512Y363804D01*
X505522Y363730D01*
X505477Y363689D01*
X505340D01*
Y363501D01*
X505290D01*
Y363451D01*
X505082D01*
Y363319D01*
X505082Y363319D01*
X505082D01*
D01*
Y363312D01*
X505088Y363308D01*
X505105Y363280D01*
X505101Y363244D01*
X505073Y363226D01*
X505073Y363226D01*
X504963Y363116D01*
X504917Y363135D01*
Y363317D01*
X504927Y363332D01*
X504934Y363368D01*
X504974Y363428D01*
X504989Y363500D01*
X504974Y363572D01*
X504933Y363633D01*
X504917Y363644D01*
Y364082D01*
X504285D01*
Y364044D01*
X504148D01*
X504076Y364029D01*
X504015Y363988D01*
X503912Y363886D01*
X503790Y364008D01*
X503728Y364049D01*
X503656Y364063D01*
X502821D01*
Y364092D01*
X502347D01*
Y363657D01*
X502821D01*
Y363686D01*
X503084D01*
Y363461D01*
X502837D01*
X502765Y363447D01*
X502704Y363406D01*
X502485Y363187D01*
X502347D01*
Y362977D01*
X502346Y362969D01*
X502347Y362962D01*
Y362847D01*
X502297Y362832D01*
X502274Y362866D01*
X502213Y362907D01*
X502141Y362922D01*
X502112Y362945D01*
Y363065D01*
X502112Y363091D01*
X502115Y363093D01*
X502116Y363093D01*
X502152Y363115D01*
Y363115D01*
X502152Y363119D01*
X502152Y363119D01*
X502152Y363120D01*
Y363120D01*
Y363120D01*
X502152Y363120D01*
X502152Y363121D01*
Y363122D01*
Y363122D01*
Y363122D01*
Y363122D01*
Y363122D01*
D01*
X502152Y363169D01*
Y363254D01*
X501944D01*
Y363304D01*
X501894D01*
Y363493D01*
X501758D01*
X501735Y363493D01*
X501708Y363531D01*
X501708Y363531D01*
Y363683D01*
X501707Y363689D01*
X501722Y363804D01*
X501769Y363917D01*
X501843Y364015D01*
X501940Y364089D01*
X502054Y364136D01*
X502169Y364151D01*
X502175Y364150D01*
X505059D01*
X505065Y364151D01*
X505180Y364136D01*
D02*
G37*
%LPC*%
G36*
X503010Y353254D02*
X502842D01*
Y353126D01*
X503010D01*
Y353254D01*
D02*
G37*
G36*
X502506Y354612D02*
X502368D01*
Y354454D01*
X502506D01*
Y354612D01*
D02*
G37*
G36*
X505240Y363689D02*
X505082D01*
Y363551D01*
X505240D01*
Y363689D01*
D02*
G37*
G36*
X505203Y353057D02*
X505045D01*
Y352919D01*
X505203D01*
Y353057D01*
D02*
G37*
G36*
X503291Y362646D02*
X503153D01*
Y362488D01*
X503291D01*
Y362646D01*
D02*
G37*
G36*
X502260Y361620D02*
X502033D01*
Y361452D01*
X502260D01*
Y361620D01*
D02*
G37*
G36*
X504180Y355855D02*
X504041D01*
Y355696D01*
X504180D01*
Y355855D01*
D02*
G37*
G36*
X501994Y363493D02*
Y363354D01*
X502152D01*
Y363493D01*
X501994D01*
D02*
G37*
G36*
X502506Y354870D02*
X502368D01*
Y354712D01*
X502506D01*
Y354870D01*
D02*
G37*
%LPD*%
D10*
X501944Y362950D02*
D03*
Y363304D02*
D03*
X503322Y356414D02*
D03*
Y356060D02*
D03*
X504601Y353461D02*
D03*
Y353107D02*
D03*
X504995Y353461D02*
D03*
Y353107D02*
D03*
X505290Y363146D02*
D03*
Y363501D02*
D03*
D11*
X501983Y362418D02*
D03*
Y361670D02*
D03*
X502889Y362044D02*
D03*
D12*
X502584Y362969D02*
D03*
Y363875D02*
D03*
D13*
X504601Y363855D02*
D03*
Y363186D02*
D03*
D14*
X504424Y355745D02*
D03*
X504778D02*
D03*
X503696Y362044D02*
D03*
X503341D02*
D03*
X503341Y361650D02*
D03*
X503696D02*
D03*
X503046Y357270D02*
D03*
X503400D02*
D03*
X502318Y354662D02*
D03*
X501963D02*
D03*
X503637Y355253D02*
D03*
X503991D02*
D03*
X503637Y355646D02*
D03*
X503991D02*
D03*
X503991Y354072D02*
D03*
X503637D02*
D03*
X503105Y354662D02*
D03*
X502751D02*
D03*
X504778Y355351D02*
D03*
X504424D02*
D03*
X503794Y352694D02*
D03*
X503440D02*
D03*
X503637Y354465D02*
D03*
X503991D02*
D03*
X503696Y362438D02*
D03*
X503341D02*
D03*
D15*
X505091Y356187D02*
D03*
Y356384D02*
D03*
Y356581D02*
D03*
Y356778D02*
D03*
X503954Y356187D02*
D03*
Y356384D02*
D03*
Y356581D02*
D03*
Y356778D02*
D03*
D16*
X504522Y356482D02*
D03*
D17*
X502761Y358165D02*
D03*
Y357752D02*
D03*
X503292Y358165D02*
D03*
Y357752D02*
D03*
D18*
X503095Y356867D02*
D03*
Y356688D02*
D03*
D19*
X503351Y356778D02*
D03*
D20*
X504916Y358250D02*
D03*
X504759D02*
D03*
X504601D02*
D03*
X504444D02*
D03*
X504286D02*
D03*
X504129D02*
D03*
Y357470D02*
D03*
X504286D02*
D03*
X504444D02*
D03*
X504601D02*
D03*
X504759D02*
D03*
X504916D02*
D03*
D21*
X503975Y358018D02*
D03*
Y357860D02*
D03*
Y357703D02*
D03*
X505070D02*
D03*
Y357860D02*
D03*
Y358018D02*
D03*
D22*
X504680Y357968D02*
D03*
X504522D02*
D03*
X504365D02*
D03*
Y357752D02*
D03*
X504522D02*
D03*
X504680D02*
D03*
D23*
X505349Y359288D02*
D03*
Y360469D02*
D03*
X504837D02*
D03*
Y359288D02*
D03*
D24*
X503656Y354859D02*
D03*
X503971D02*
D03*
D25*
X503190Y355056D02*
D03*
Y355253D02*
D03*
Y355450D02*
D03*
Y355646D02*
D03*
X502076Y355056D02*
D03*
Y355253D02*
D03*
Y355450D02*
D03*
Y355646D02*
D03*
D26*
X502633Y355351D02*
D03*
D27*
X503060Y353304D02*
D03*
Y353560D02*
D03*
Y353816D02*
D03*
Y354072D02*
D03*
X501958Y353304D02*
D03*
Y353560D02*
D03*
Y353816D02*
D03*
Y354072D02*
D03*
D28*
X504628Y353875D02*
D03*
Y354072D02*
D03*
X504798Y353973D02*
D03*
X504968Y353875D02*
D03*
Y354072D02*
D03*
D29*
X505113Y354761D02*
D03*
X504483D02*
D03*
D30*
X504040Y353186D02*
D03*
Y353383D02*
D03*
Y353580D02*
D03*
X503587Y353186D02*
D03*
Y353383D02*
D03*
Y353580D02*
D03*
D31*
X504503Y361507D02*
D03*
X504700D02*
D03*
X504897D02*
D03*
Y362582D02*
D03*
X504700D02*
D03*
X504503D02*
D03*
D32*
X505237Y361650D02*
D03*
Y361847D02*
D03*
Y362044D02*
D03*
Y362241D02*
D03*
Y362438D02*
D03*
X504162D02*
D03*
Y362241D02*
D03*
Y362044D02*
D03*
Y361847D02*
D03*
Y361650D02*
D03*
D33*
X503341Y363272D02*
D03*
X503893D02*
D03*
D34*
X502300Y355847D02*
X502400Y355747D01*
Y355584D02*
Y355747D01*
Y355584D02*
X502534Y355450D01*
X502860Y356432D02*
X502950D01*
X502431D02*
X502860D01*
X502534Y355450D02*
X502633Y355351D01*
X502300Y356300D02*
X502431Y356432D01*
X502300Y355847D02*
Y356300D01*
X504987Y353700D02*
X505200D01*
X503549Y356187D02*
X503954D01*
X504207Y355450D02*
X504326D01*
X504424Y355351D01*
X504601Y363186D02*
X504897Y362891D01*
Y362582D02*
Y362891D01*
X505152Y363146D02*
X505290D01*
X504897Y362891D02*
X505152Y363146D01*
X501958Y353816D02*
Y354072D01*
Y353560D02*
Y353816D01*
Y353304D02*
Y353560D01*
X502534Y363875D02*
X502584D01*
X503893Y363272D02*
Y363599D01*
X504968Y354072D02*
X505113Y354216D01*
X503637Y354426D02*
Y354465D01*
Y354426D02*
X503991Y354072D01*
X504483Y354761D02*
X504798Y354446D01*
Y353973D02*
Y354446D01*
X504424Y355706D02*
Y355745D01*
Y355706D02*
X504778Y355351D01*
X503991Y354879D02*
Y355253D01*
X503971Y354859D02*
X503991Y354879D01*
X503095Y356641D02*
X503322Y356414D01*
X503085Y356698D02*
X503095Y356688D01*
X503954Y356187D02*
Y356384D01*
X503086Y355750D02*
X503190Y355646D01*
X503147Y356235D02*
X503147D01*
X503322Y356060D02*
Y356061D01*
X503147Y356235D02*
X503322Y356061D01*
X503991Y355253D02*
Y355646D01*
X503322Y356414D02*
X503549Y356187D01*
X504306Y362891D02*
X504601Y363186D01*
X504162Y362438D02*
X504306Y362581D01*
Y362891D01*
X503991Y355253D02*
X504011D01*
X504207Y355450D01*
X502076D02*
X502534D01*
X503400Y354800D02*
X503597D01*
X503656Y354859D01*
X503190Y355010D02*
X503400Y354800D01*
X503190Y355010D02*
Y355056D01*
X503549Y356187D02*
X503617Y356119D01*
Y355942D02*
Y356119D01*
X502318Y354288D02*
Y354662D01*
X502633Y354977D01*
Y355351D01*
X503028Y357488D02*
X503292Y357752D01*
X502950Y356432D02*
X503147Y356235D01*
X502450Y356841D02*
X502860Y356432D01*
X502820Y356698D02*
X503085D01*
X502615Y356903D02*
X502820Y356698D01*
X504798Y352792D02*
X504995Y352989D01*
Y353107D01*
X502450Y356841D02*
Y357159D01*
X502779Y357488D01*
X503028D01*
X502615Y356903D02*
Y357097D01*
X502787Y357270D01*
X503046D01*
D35*
X502545Y361650D02*
X502724Y361829D01*
X503126D02*
X503341Y362044D01*
X502724Y361829D02*
X503126D01*
X502534Y361650D02*
X502545D01*
X502350Y361950D02*
Y362500D01*
X505113Y355331D02*
X505339Y355557D01*
X504772Y356430D02*
X504818Y356384D01*
X505091D01*
X504444Y357206D02*
Y357470D01*
X504813Y356187D02*
X505091D01*
X504652Y356348D02*
X504813Y356187D01*
X504916Y357470D02*
X505029D01*
X505070Y357703D02*
X505147D01*
X505368Y357481D01*
X505070Y357860D02*
X505339D01*
X504522Y357968D02*
X504680D01*
X504365D02*
X504522D01*
Y357752D02*
Y357968D01*
X504754Y358018D02*
X505070D01*
X504754D02*
X504759Y358022D01*
Y358250D01*
X504680Y357968D02*
X504729Y358018D01*
X504754D01*
X503975D02*
X504154D01*
X504286Y358150D01*
Y358250D01*
X504601D02*
Y358343D01*
X502761Y357752D02*
X502789D01*
X503893Y361847D02*
X504162D01*
X503696Y361650D02*
X503893Y361847D01*
X501944Y362457D02*
X501983Y362418D01*
X503696Y362044D02*
Y362438D01*
X503696Y362438D01*
X504162D01*
X501973Y362733D02*
X502141D01*
X501944Y362457D02*
Y362950D01*
Y363304D02*
Y363619D01*
X505290Y363501D02*
Y363816D01*
X505237Y361847D02*
X505237Y361847D01*
X505389D01*
X505487Y361946D01*
X505237Y362241D02*
X505389D01*
X505487Y362143D01*
Y361946D02*
Y362143D01*
Y361060D02*
Y361946D01*
X505192Y361454D02*
Y361605D01*
X505237Y361650D01*
X503026Y362438D02*
X503341D01*
X503341Y361650D02*
Y361690D01*
X503696Y362044D01*
X505290Y360863D02*
X505487Y361060D01*
X504778Y355745D02*
X505091Y356058D01*
Y356187D01*
X503350Y354179D02*
X503637Y354465D01*
X503350Y353434D02*
X503401Y353383D01*
X503587D01*
X503350Y353434D02*
Y354179D01*
X505339Y355557D02*
Y356470D01*
X505228Y356581D02*
X505339Y356470D01*
X505091Y356581D02*
X505228D01*
X504352Y358422D02*
X504444Y358330D01*
X504402Y358542D02*
X504601Y358343D01*
X503895Y357860D02*
X503975D01*
X502789Y357752D02*
X503035Y357997D01*
Y358350D01*
X503400Y357172D02*
Y357270D01*
X503046D02*
X503291Y357514D01*
X503868Y358018D02*
X503975D01*
X504503Y361507D02*
Y361749D01*
X504897Y361507D02*
Y362582D01*
X504650Y361850D02*
Y361896D01*
X504503Y361749D02*
X504650Y361896D01*
X504505Y362009D02*
Y362144D01*
X504162Y361847D02*
X504343D01*
X504505Y362009D01*
X503351Y356778D02*
X503370Y356796D01*
X503953Y356581D02*
X503954Y356581D01*
X503722Y357687D02*
X503895Y357860D01*
X503975Y357125D02*
Y357703D01*
X503601Y357752D02*
X503868Y358018D01*
X503095Y356867D02*
X503400Y357172D01*
X502983Y356867D02*
X503095D01*
X503292Y358165D02*
X503549Y358422D01*
X504352D01*
X503035Y358350D02*
X503227Y358542D01*
X504402D01*
X503618Y356581D02*
X503953D01*
X502850Y357000D02*
X502983Y356867D01*
X503291Y357514D02*
X503497D01*
X503601Y357619D01*
Y357752D01*
X503722Y357379D02*
Y357687D01*
X503900Y357050D02*
X503975Y357125D01*
X504759Y357390D02*
Y357470D01*
Y357390D02*
X505017Y357132D01*
X504652Y356348D02*
Y356835D01*
X505017Y357132D02*
X505018D01*
X505029Y357470D02*
X505368Y357132D01*
X504444Y357206D02*
X504518Y357132D01*
X504601Y357378D02*
Y357470D01*
Y357378D02*
X504772Y357207D01*
Y356430D02*
Y357207D01*
X504599Y356887D02*
X504652Y356835D01*
X504413Y356887D02*
X504599D01*
X504286Y357014D02*
Y357470D01*
Y357014D02*
X504413Y356887D01*
X503370Y356796D02*
X503935D01*
X504129Y356991D01*
Y357470D01*
X503700Y357050D02*
X503900D01*
D36*
X505113Y354216D02*
Y354761D01*
Y355017D01*
Y355331D01*
X504778Y355351D02*
X505113Y355017D01*
X502888Y353816D02*
X503060D01*
X502751Y353954D02*
X502888Y353816D01*
X504400Y363387D02*
Y363500D01*
Y363387D02*
X504601Y363186D01*
X504800Y363385D02*
Y363500D01*
X504601Y363186D02*
X504800Y363385D01*
D37*
X502837Y363272D02*
X503341D01*
X502534Y362969D02*
X502837Y363272D01*
X502584Y363875D02*
X503656D01*
X503893Y363639D01*
Y363402D02*
Y363639D01*
Y363599D02*
X504148Y363855D01*
X504601D01*
X502716Y362216D02*
X502889Y362044D01*
X502716Y362216D02*
Y362837D01*
X502584Y362969D02*
X502716Y362837D01*
X502261Y353548D02*
X502709Y353996D01*
X502261Y353098D02*
Y353548D01*
X501692Y352528D02*
X502261Y353098D01*
D38*
X504837Y360469D02*
Y360804D01*
X505349Y360469D02*
Y360804D01*
Y358954D02*
Y359288D01*
D39*
X504040Y353383D02*
X504326D01*
X504601Y353107D01*
X504628Y353750D02*
Y353875D01*
Y353750D02*
X504696Y353681D01*
X504968D01*
Y353488D02*
Y353681D01*
X503587Y352900D02*
Y353186D01*
Y352900D02*
X503794Y352694D01*
X501963Y354662D02*
X502076Y354774D01*
Y355056D01*
X503190Y355450D02*
Y355646D01*
X503637D01*
X504601Y353461D02*
X504641D01*
X504995Y353107D01*
X504404Y353658D02*
X504601Y353461D01*
X503041Y353580D02*
X503060Y353560D01*
Y354367D02*
Y354617D01*
Y354072D02*
Y354367D01*
X504968Y353681D02*
Y353875D01*
X504404Y353658D02*
Y353973D01*
X502751Y354000D02*
Y354662D01*
X503587Y353580D02*
X503600Y353592D01*
Y353800D01*
Y354035D01*
X503883Y353737D02*
X504011Y353609D01*
X504404Y353973D02*
X504406Y353975D01*
X504493D01*
X504590Y354072D01*
X504628D01*
X504256Y354200D02*
X504400D01*
X503991Y354465D02*
X504256Y354200D01*
X503440Y352694D02*
X503447Y352701D01*
Y353000D01*
X503300D02*
X503447D01*
X503250Y353050D02*
X503300Y353000D01*
X503190Y355253D02*
X503637D01*
X503190Y355056D02*
Y355253D01*
X502731Y353580D02*
X503041D01*
X504050Y352900D02*
X504394D01*
X504601Y353107D01*
D40*
X504837Y358813D02*
Y359288D01*
Y358813D02*
X504916Y358734D01*
Y358250D02*
Y358734D01*
D41*
X501692Y352528D02*
D03*
X505542D02*
D03*
X501550Y358402D02*
D03*
Y359583D02*
D03*
D42*
X502700Y356050D02*
D03*
X501900D02*
D03*
X502300Y358050D02*
D03*
D43*
X503050Y355850D02*
D03*
X502534Y361650D02*
D03*
X502350Y361950D02*
D03*
Y362500D02*
D03*
X505113Y354268D02*
D03*
X505093Y355351D02*
D03*
X505368Y357132D02*
D03*
Y357481D02*
D03*
Y357831D02*
D03*
X504109Y358895D02*
D03*
X503322D02*
D03*
X502928Y360076D02*
D03*
Y360469D02*
D03*
Y360863D02*
D03*
X503322D02*
D03*
X503715D02*
D03*
X504109D02*
D03*
X504503D02*
D03*
X504896D02*
D03*
X505290D02*
D03*
Y358895D02*
D03*
X504503D02*
D03*
X502141Y362733D02*
D03*
X501944Y363619D02*
D03*
X505290Y363816D02*
D03*
X505192Y361454D02*
D03*
X503026Y362438D02*
D03*
X503060Y354367D02*
D03*
X504404Y353658D02*
D03*
X504050Y352900D02*
D03*
X503925Y353778D02*
D03*
X503600Y353800D02*
D03*
X504400Y354200D02*
D03*
X503250Y353050D02*
D03*
X502600Y352900D02*
D03*
Y353250D02*
D03*
X504650Y361850D02*
D03*
X504505Y362144D02*
D03*
X504400Y363500D02*
D03*
X504800D02*
D03*
X505290Y358501D02*
D03*
X504207Y355450D02*
D03*
X502337Y354268D02*
D03*
X503400Y354800D02*
D03*
X502928Y359682D02*
D03*
Y359288D02*
D03*
X503617Y355942D02*
D03*
X502750Y354000D02*
D03*
X502731Y353570D02*
D03*
X503715Y358895D02*
D03*
X502950Y356432D02*
D03*
X504798Y352792D02*
D03*
X502928Y358895D02*
D03*
X503618Y356581D02*
D03*
X502850Y357000D02*
D03*
X503722Y357379D02*
D03*
X505018Y357132D02*
D03*
X504518D02*
D03*
X503700Y357050D02*
D03*
X502200Y358450D02*
D03*
D44*
X505200Y353700D02*
D03*
M02*
