G04*
G04 #@! TF.GenerationSoftware,Altium Limited,CircuitStudio,1.5.2 (30)*
G04*
G04 Layer_Physical_Order=2*
G04 Layer_Color=16765976*
%FSLAX24Y24*%
%MOIN*%
G70*
G01*
G75*
%ADD41C,0.0803*%
%ADD43C,0.0250*%
%ADD45C,0.0500*%
G36*
X505180Y364136D02*
X505293Y364089D01*
X505391Y364015D01*
X505465Y363917D01*
X505512Y363804D01*
X505527Y363689D01*
X505526Y363683D01*
Y360666D01*
X503105D01*
Y359091D01*
X503105Y359091D01*
X505526D01*
Y358009D01*
X505476Y357982D01*
X505440Y358006D01*
X505368Y358020D01*
X505296Y358006D01*
X505235Y357965D01*
X505194Y357904D01*
X505179Y357831D01*
X505194Y357759D01*
X505235Y357698D01*
X505252Y357687D01*
Y357626D01*
X505235Y357615D01*
X505194Y357554D01*
X505179Y357481D01*
X505194Y357409D01*
X505235Y357348D01*
X505252Y357337D01*
Y357276D01*
X505235Y357265D01*
X505223Y357248D01*
X505163D01*
X505151Y357265D01*
X505090Y357306D01*
X505018Y357320D01*
X504946Y357306D01*
X504885Y357265D01*
X504844Y357204D01*
X504829Y357132D01*
X504844Y357059D01*
X504885Y356998D01*
X504946Y356957D01*
X505018Y356943D01*
X505090Y356957D01*
X505151Y356998D01*
X505163Y357015D01*
X505223D01*
X505235Y356998D01*
X505296Y356957D01*
X505368Y356943D01*
X505440Y356957D01*
X505476Y356981D01*
X505526Y356954D01*
Y352992D01*
X505421Y352978D01*
X505309Y352932D01*
X505213Y352858D01*
X505139Y352761D01*
X505092Y352649D01*
X505076Y352528D01*
X505080Y352502D01*
X505077Y352496D01*
X505035Y352458D01*
X502199D01*
X502157Y352496D01*
X502154Y352502D01*
X502157Y352528D01*
X502142Y352649D01*
X502095Y352761D01*
X502021Y352858D01*
X501925Y352932D01*
X501812Y352978D01*
X501708Y352992D01*
Y355811D01*
X501758Y355838D01*
X501800Y355810D01*
X501900Y355790D01*
X502000Y355810D01*
X502084Y355866D01*
X502140Y355951D01*
X502160Y356050D01*
X502140Y356149D01*
X502084Y356234D01*
X502000Y356290D01*
X501900Y356310D01*
X501800Y356290D01*
X501758Y356262D01*
X501708Y356289D01*
Y357968D01*
X501783Y357999D01*
X501879Y358073D01*
X501953Y358170D01*
X502000Y358282D01*
X502005Y358319D01*
X502057Y358332D01*
X502067Y358317D01*
X502108Y358289D01*
X502116Y358237D01*
X502113Y358230D01*
X502060Y358149D01*
X502040Y358050D01*
X502060Y357951D01*
X502116Y357866D01*
X502201Y357810D01*
X502300Y357790D01*
X502399Y357810D01*
X502484Y357866D01*
X502540Y357951D01*
X502560Y358050D01*
X502540Y358149D01*
X502484Y358234D01*
X502399Y358290D01*
X502379Y358294D01*
X502356Y358350D01*
X502374Y358378D01*
X502389Y358450D01*
X502374Y358522D01*
X502333Y358583D01*
X502272Y358624D01*
X502200Y358639D01*
X502128Y358624D01*
X502067Y358583D01*
X502043Y358548D01*
X501987Y358554D01*
X501953Y358635D01*
X501879Y358732D01*
X501783Y358806D01*
X501708Y358837D01*
Y359106D01*
X501803Y359145D01*
X501908Y359226D01*
X501988Y359331D01*
X502039Y359453D01*
X502056Y359583D01*
X502039Y359714D01*
X501988Y359836D01*
X501908Y359941D01*
X501803Y360022D01*
X501708Y360061D01*
Y363683D01*
X501707Y363689D01*
X501722Y363804D01*
X501769Y363917D01*
X501843Y364015D01*
X501940Y364089D01*
X502054Y364136D01*
X502169Y364151D01*
X502175Y364150D01*
X505059D01*
X505065Y364151D01*
X505180Y364136D01*
D02*
G37*
%LPC*%
G36*
X505113Y354457D02*
X505041Y354443D01*
X504980Y354402D01*
X504939Y354341D01*
X504924Y354268D01*
X504939Y354196D01*
X504980Y354135D01*
X505041Y354094D01*
X505113Y354080D01*
X505185Y354094D01*
X505246Y354135D01*
X505287Y354196D01*
X505302Y354268D01*
X505287Y354341D01*
X505246Y354402D01*
X505185Y354443D01*
X505113Y354457D01*
D02*
G37*
G36*
X504400Y354389D02*
X504328Y354374D01*
X504267Y354333D01*
X504226Y354272D01*
X504211Y354200D01*
X504226Y354128D01*
X504267Y354067D01*
X504328Y354026D01*
X504400Y354011D01*
X504472Y354026D01*
X504533Y354067D01*
X504574Y354128D01*
X504589Y354200D01*
X504574Y354272D01*
X504533Y354333D01*
X504472Y354374D01*
X504400Y354389D01*
D02*
G37*
G36*
X503060Y354556D02*
X502988Y354541D01*
X502927Y354500D01*
X502886Y354439D01*
X502872Y354367D01*
X502886Y354295D01*
X502927Y354234D01*
X502988Y354193D01*
X503060Y354178D01*
X503132Y354193D01*
X503194Y354234D01*
X503234Y354295D01*
X503249Y354367D01*
X503234Y354439D01*
X503194Y354500D01*
X503132Y354541D01*
X503060Y354556D01*
D02*
G37*
G36*
X505093Y355540D02*
X505021Y355525D01*
X504960Y355485D01*
X504919Y355423D01*
X504905Y355351D01*
X504919Y355279D01*
X504960Y355218D01*
X505021Y355177D01*
X505093Y355163D01*
X505165Y355177D01*
X505227Y355218D01*
X505268Y355279D01*
X505282Y355351D01*
X505268Y355423D01*
X505227Y355485D01*
X505165Y355525D01*
X505093Y355540D01*
D02*
G37*
G36*
X503400Y354989D02*
X503328Y354974D01*
X503267Y354933D01*
X503226Y354872D01*
X503211Y354800D01*
X503226Y354728D01*
X503267Y354667D01*
X503328Y354626D01*
X503400Y354611D01*
X503472Y354626D01*
X503533Y354667D01*
X503574Y354728D01*
X503589Y354800D01*
X503574Y354872D01*
X503533Y354933D01*
X503472Y354974D01*
X503400Y354989D01*
D02*
G37*
G36*
X502731Y353758D02*
X502659Y353744D01*
X502598Y353703D01*
X502557Y353642D01*
X502542Y353570D01*
X502557Y353497D01*
X502598Y353436D01*
X502659Y353395D01*
X502731Y353381D01*
X502803Y353395D01*
X502864Y353436D01*
X502905Y353497D01*
X502920Y353570D01*
X502905Y353642D01*
X502864Y353703D01*
X502803Y353744D01*
X502731Y353758D01*
D02*
G37*
G36*
X504050Y353089D02*
X503978Y353074D01*
X503917Y353033D01*
X503876Y352972D01*
X503861Y352900D01*
X503876Y352828D01*
X503917Y352767D01*
X503978Y352726D01*
X504050Y352711D01*
X504122Y352726D01*
X504183Y352767D01*
X504224Y352828D01*
X504239Y352900D01*
X504224Y352972D01*
X504183Y353033D01*
X504122Y353074D01*
X504050Y353089D01*
D02*
G37*
G36*
X505200Y353914D02*
X505118Y353898D01*
X505049Y353851D01*
X505002Y353782D01*
X504986Y353700D01*
X505002Y353618D01*
X505049Y353549D01*
X505118Y353502D01*
X505200Y353486D01*
X505282Y353502D01*
X505351Y353549D01*
X505398Y353618D01*
X505414Y353700D01*
X505398Y353782D01*
X505351Y353851D01*
X505282Y353898D01*
X505200Y353914D01*
D02*
G37*
G36*
X502750Y354189D02*
X502678Y354174D01*
X502617Y354133D01*
X502576Y354072D01*
X502561Y354000D01*
X502576Y353928D01*
X502617Y353867D01*
X502678Y353826D01*
X502750Y353811D01*
X502822Y353826D01*
X502883Y353867D01*
X502924Y353928D01*
X502939Y354000D01*
X502924Y354072D01*
X502883Y354133D01*
X502822Y354174D01*
X502750Y354189D01*
D02*
G37*
G36*
X503600Y353989D02*
X503528Y353974D01*
X503467Y353933D01*
X503426Y353872D01*
X503411Y353800D01*
X503426Y353728D01*
X503467Y353667D01*
X503528Y353626D01*
X503600Y353611D01*
X503672Y353626D01*
X503733Y353667D01*
X503777D01*
X503792Y353645D01*
X503853Y353604D01*
X503925Y353590D01*
X503997Y353604D01*
X504058Y353645D01*
X504099Y353706D01*
X504114Y353778D01*
X504099Y353851D01*
X504058Y353912D01*
X503997Y353953D01*
X503925Y353967D01*
X503853Y353953D01*
X503803Y353919D01*
X503743Y353919D01*
X503733Y353933D01*
X503672Y353974D01*
X503600Y353989D01*
D02*
G37*
G36*
X502700Y356310D02*
X502601Y356290D01*
X502516Y356234D01*
X502460Y356149D01*
X502440Y356050D01*
X502460Y355951D01*
X502516Y355866D01*
X502601Y355810D01*
X502700Y355790D01*
X502799Y355810D01*
X502816Y355821D01*
X502872Y355798D01*
X502876Y355778D01*
X502917Y355717D01*
X502978Y355676D01*
X503050Y355661D01*
X503122Y355676D01*
X503183Y355717D01*
X503224Y355778D01*
X503239Y355850D01*
X503224Y355922D01*
X503183Y355983D01*
X503122Y356024D01*
X503050Y356039D01*
X503007Y356030D01*
X502966Y356047D01*
X502957Y356067D01*
X502940Y356149D01*
X502884Y356234D01*
X502799Y356290D01*
X502700Y356310D01*
D02*
G37*
G36*
X502350Y362139D02*
X502278Y362124D01*
X502217Y362083D01*
X502176Y362022D01*
X502161Y361950D01*
X502176Y361878D01*
X502217Y361817D01*
X502278Y361776D01*
X502329Y361766D01*
X502355Y361729D01*
X502358Y361713D01*
X502346Y361650D01*
X502360Y361578D01*
X502401Y361517D01*
X502462Y361476D01*
X502534Y361462D01*
X502606Y361476D01*
X502668Y361517D01*
X502709Y361578D01*
X502723Y361650D01*
X502709Y361723D01*
X502668Y361784D01*
X502606Y361825D01*
X502556Y361835D01*
X502529Y361871D01*
X502526Y361888D01*
X502539Y361950D01*
X502524Y362022D01*
X502483Y362083D01*
X502422Y362124D01*
X502350Y362139D01*
D02*
G37*
G36*
X505192Y361642D02*
X505120Y361628D01*
X505058Y361587D01*
X505017Y361526D01*
X505003Y361454D01*
X505017Y361381D01*
X505058Y361320D01*
X505120Y361279D01*
X505192Y361265D01*
X505264Y361279D01*
X505325Y361320D01*
X505366Y361381D01*
X505380Y361454D01*
X505366Y361526D01*
X505325Y361587D01*
X505264Y361628D01*
X505192Y361642D01*
D02*
G37*
G36*
X504505Y362333D02*
X504433Y362319D01*
X504371Y362278D01*
X504330Y362217D01*
X504316Y362144D01*
X504330Y362072D01*
X504371Y362011D01*
X504433Y361970D01*
X504458Y361965D01*
X504476Y361922D01*
X504461Y361850D01*
X504476Y361778D01*
X504517Y361717D01*
X504578Y361676D01*
X504650Y361661D01*
X504722Y361676D01*
X504783Y361717D01*
X504824Y361778D01*
X504839Y361850D01*
X504824Y361922D01*
X504783Y361983D01*
X504722Y362024D01*
X504697Y362029D01*
X504679Y362072D01*
X504693Y362144D01*
X504679Y362217D01*
X504638Y362278D01*
X504577Y362319D01*
X504505Y362333D01*
D02*
G37*
G36*
X504800Y363689D02*
X504728Y363674D01*
X504667Y363633D01*
X504626Y363572D01*
X504625Y363571D01*
X504575D01*
X504574Y363572D01*
X504533Y363633D01*
X504472Y363674D01*
X504400Y363689D01*
X504328Y363674D01*
X504267Y363633D01*
X504226Y363572D01*
X504211Y363500D01*
X504226Y363428D01*
X504267Y363367D01*
X504328Y363326D01*
X504400Y363311D01*
X504472Y363326D01*
X504533Y363367D01*
X504574Y363428D01*
X504575Y363429D01*
X504625D01*
X504626Y363428D01*
X504667Y363367D01*
X504728Y363326D01*
X504800Y363311D01*
X504872Y363326D01*
X504933Y363367D01*
X504974Y363428D01*
X504989Y363500D01*
X504974Y363572D01*
X504933Y363633D01*
X504872Y363674D01*
X504800Y363689D01*
D02*
G37*
G36*
X502141Y362922D02*
X502068Y362907D01*
X502007Y362866D01*
X501966Y362805D01*
X501952Y362733D01*
X501966Y362661D01*
X502007Y362600D01*
X502068Y362559D01*
X502120Y362549D01*
X502160Y362503D01*
X502162Y362498D01*
X502176Y362428D01*
X502217Y362367D01*
X502278Y362326D01*
X502350Y362311D01*
X502422Y362326D01*
X502483Y362367D01*
X502524Y362428D01*
X502539Y362500D01*
X502524Y362572D01*
X502483Y362633D01*
X502422Y362674D01*
X502370Y362685D01*
X502331Y362730D01*
X502329Y362735D01*
X502315Y362805D01*
X502274Y362866D01*
X502213Y362907D01*
X502141Y362922D01*
D02*
G37*
G36*
X503618Y356770D02*
X503546Y356756D01*
X503485Y356715D01*
X503444Y356654D01*
X503429Y356581D01*
X503444Y356509D01*
X503485Y356448D01*
X503546Y356407D01*
X503618Y356393D01*
X503690Y356407D01*
X503751Y356448D01*
X503792Y356509D01*
X503807Y356581D01*
X503792Y356654D01*
X503751Y356715D01*
X503690Y356756D01*
X503618Y356770D01*
D02*
G37*
G36*
X503617Y356130D02*
X503545Y356116D01*
X503484Y356075D01*
X503443Y356014D01*
X503428Y355942D01*
X503443Y355870D01*
X503484Y355808D01*
X503545Y355767D01*
X503617Y355753D01*
X503689Y355767D01*
X503750Y355808D01*
X503791Y355870D01*
X503806Y355942D01*
X503791Y356014D01*
X503750Y356075D01*
X503689Y356116D01*
X503617Y356130D01*
D02*
G37*
G36*
X502850Y357189D02*
X502778Y357174D01*
X502717Y357133D01*
X502676Y357072D01*
X502661Y357000D01*
X502676Y356928D01*
X502717Y356867D01*
X502778Y356826D01*
X502850Y356811D01*
X502922Y356826D01*
X502983Y356867D01*
X503024Y356928D01*
X503039Y357000D01*
X503024Y357072D01*
X502983Y357133D01*
X502922Y357174D01*
X502850Y357189D01*
D02*
G37*
G36*
X504518Y357320D02*
X504446Y357306D01*
X504385Y357265D01*
X504344Y357204D01*
X504329Y357132D01*
X504344Y357059D01*
X504385Y356998D01*
X504446Y356957D01*
X504518Y356943D01*
X504590Y356957D01*
X504651Y356998D01*
X504692Y357059D01*
X504707Y357132D01*
X504692Y357204D01*
X504651Y357265D01*
X504590Y357306D01*
X504518Y357320D01*
D02*
G37*
G36*
X503722Y357567D02*
X503649Y357553D01*
X503588Y357512D01*
X503547Y357451D01*
X503533Y357379D01*
X503547Y357306D01*
X503588Y357245D01*
Y357198D01*
X503567Y357183D01*
X503526Y357122D01*
X503511Y357050D01*
X503526Y356978D01*
X503567Y356917D01*
X503628Y356876D01*
X503700Y356861D01*
X503772Y356876D01*
X503833Y356917D01*
X503874Y356978D01*
X503889Y357050D01*
X503874Y357122D01*
X503833Y357183D01*
Y357231D01*
X503855Y357245D01*
X503896Y357306D01*
X503910Y357379D01*
X503896Y357451D01*
X503855Y357512D01*
X503794Y357553D01*
X503722Y357567D01*
D02*
G37*
%LPD*%
D41*
X501550Y359583D02*
D03*
D43*
X504109Y358895D02*
D03*
X503322D02*
D03*
X502928Y360076D02*
D03*
Y360469D02*
D03*
Y360863D02*
D03*
X503322D02*
D03*
X503715D02*
D03*
X504109D02*
D03*
X504503D02*
D03*
X504896D02*
D03*
X505290D02*
D03*
Y358895D02*
D03*
X504503D02*
D03*
X501944Y363619D02*
D03*
X505290Y363816D02*
D03*
X503026Y362438D02*
D03*
X504404Y353658D02*
D03*
X503250Y353050D02*
D03*
X502600Y352900D02*
D03*
Y353250D02*
D03*
X505290Y358501D02*
D03*
X504207Y355450D02*
D03*
X502337Y354268D02*
D03*
X502928Y359682D02*
D03*
Y359288D02*
D03*
X503715Y358895D02*
D03*
X502950Y356432D02*
D03*
X504798Y352792D02*
D03*
X502928Y358895D02*
D03*
D45*
X501550Y359583D02*
X502333D01*
M02*
