G04*
G04 #@! TF.GenerationSoftware,Altium Limited,CircuitStudio,1.5.2 (30)*
G04*
G04 Layer_Physical_Order=4*
G04 Layer_Color=5656142*
%FSLAX24Y24*%
%MOIN*%
G70*
G01*
G75*
%ADD34C,0.0100*%
%ADD35C,0.0060*%
%ADD39C,0.0080*%
%ADD41C,0.0803*%
%ADD42C,0.0100*%
%ADD43C,0.0250*%
%ADD44C,0.0300*%
%ADD46C,0.0310*%
%ADD47C,0.0200*%
%ADD48C,0.0300*%
G36*
X505235Y356998D02*
X505296Y356957D01*
X505368Y356943D01*
X505440Y356957D01*
X505476Y356981D01*
X505526Y356954D01*
Y352992D01*
X505464Y352984D01*
X505414Y353027D01*
Y353700D01*
X505398Y353782D01*
X505351Y353851D01*
X505282Y353898D01*
X505200Y353914D01*
X505118Y353898D01*
X505066Y353863D01*
X504968D01*
X504578Y354253D01*
X504574Y354272D01*
X504533Y354333D01*
X504472Y354374D01*
X504453Y354378D01*
X503806Y355024D01*
X503800Y355033D01*
X503633Y355200D01*
X503624Y355206D01*
X503213Y355618D01*
Y355761D01*
X503224Y355778D01*
X503239Y355850D01*
X503224Y355922D01*
X503183Y355983D01*
X503122Y356024D01*
X503050Y356039D01*
X503007Y356030D01*
X502966Y356047D01*
X502957Y356067D01*
X502940Y356149D01*
X502884Y356234D01*
X502799Y356290D01*
X502731Y356304D01*
X502720Y356357D01*
X502734Y356366D01*
X502790Y356451D01*
X502800Y356500D01*
X502550D01*
Y356600D01*
X502800D01*
X502791Y356643D01*
X502798Y356664D01*
X502814Y356693D01*
X502939D01*
X502974Y356700D01*
X502981Y356705D01*
X503425D01*
X503448Y356661D01*
X503444Y356654D01*
X503429Y356581D01*
X503444Y356509D01*
X503485Y356448D01*
X503546Y356407D01*
X503618Y356393D01*
X503690Y356407D01*
X503751Y356448D01*
X503779Y356490D01*
X504468D01*
X504503Y356497D01*
X504533Y356517D01*
X504969Y356953D01*
X505018Y356943D01*
X505090Y356957D01*
X505151Y356998D01*
X505163Y357015D01*
X505223D01*
X505235Y356998D01*
D02*
G37*
G36*
X502305Y356474D02*
X502310Y356451D01*
X502366Y356366D01*
X502450Y356310D01*
X502519Y356296D01*
X502530Y356243D01*
X502516Y356234D01*
X502460Y356149D01*
X502440Y356050D01*
X502460Y355951D01*
X502516Y355866D01*
X502601Y355810D01*
X502700Y355790D01*
X502799Y355810D01*
X502816Y355821D01*
X502872Y355798D01*
X502876Y355778D01*
X502887Y355761D01*
Y355550D01*
X502899Y355488D01*
X502935Y355435D01*
X503343Y355026D01*
X503332Y354979D01*
X503326Y354973D01*
X503267Y354933D01*
X503226Y354872D01*
X503211Y354800D01*
X503226Y354728D01*
X503267Y354667D01*
X503328Y354626D01*
X503400Y354611D01*
X503472Y354626D01*
X503533Y354667D01*
X503573Y354726D01*
X503579Y354732D01*
X503626Y354743D01*
X504222Y354147D01*
X504226Y354128D01*
X504267Y354067D01*
X504328Y354026D01*
X504347Y354022D01*
X504785Y353585D01*
X504838Y353549D01*
X504900Y353537D01*
X504986D01*
Y352870D01*
X505002Y352789D01*
X505049Y352719D01*
X505100Y352668D01*
X505092Y352649D01*
X505076Y352528D01*
X505080Y352502D01*
X505077Y352496D01*
X505035Y352458D01*
X502199D01*
X502157Y352496D01*
X502154Y352502D01*
X502157Y352528D01*
X502142Y352649D01*
X502095Y352761D01*
X502021Y352858D01*
X501925Y352932D01*
X501812Y352978D01*
X501708Y352992D01*
Y355811D01*
X501758Y355838D01*
X501800Y355810D01*
X501900Y355790D01*
X502000Y355810D01*
X502084Y355866D01*
X502140Y355951D01*
X502160Y356050D01*
X502140Y356149D01*
X502084Y356234D01*
X502000Y356290D01*
X502010Y356339D01*
X502050Y356331D01*
X502134Y356347D01*
X502205Y356395D01*
X502253Y356466D01*
X502254Y356474D01*
X502305D01*
D02*
G37*
G36*
X504455Y362368D02*
X504441Y362320D01*
X504433Y362319D01*
X504392Y362292D01*
X502461D01*
X502446Y362342D01*
X502483Y362367D01*
X502524Y362428D01*
X502539Y362500D01*
X502529Y362549D01*
X502588Y362608D01*
X504215D01*
X504455Y362368D01*
D02*
G37*
G36*
X505180Y364136D02*
X505293Y364089D01*
X505391Y364015D01*
X505465Y363917D01*
X505512Y363804D01*
X505527Y363689D01*
X505526Y363683D01*
Y360666D01*
X503105D01*
Y359091D01*
X503105Y359091D01*
X505526D01*
Y358009D01*
X505476Y357982D01*
X505440Y358006D01*
X505368Y358020D01*
X505296Y358006D01*
X505235Y357965D01*
X505208Y357925D01*
X503683D01*
X502576Y359032D01*
Y361470D01*
X502606Y361476D01*
X502668Y361517D01*
X502709Y361578D01*
X502723Y361650D01*
X502709Y361723D01*
X502668Y361784D01*
X502666Y361836D01*
X502818Y361988D01*
X504227D01*
X504430Y361785D01*
X504460Y361765D01*
X504488Y361760D01*
X504517Y361717D01*
X504578Y361676D01*
X504650Y361661D01*
X504722Y361676D01*
X504783Y361717D01*
X504824Y361778D01*
X504839Y361850D01*
X504824Y361922D01*
X504812Y361941D01*
X504850Y361973D01*
X505100Y361724D01*
Y361615D01*
X505058Y361587D01*
X505017Y361526D01*
X505003Y361454D01*
X505017Y361381D01*
X505058Y361320D01*
X505120Y361279D01*
X505192Y361265D01*
X505264Y361279D01*
X505325Y361320D01*
X505366Y361381D01*
X505380Y361454D01*
X505366Y361526D01*
X505325Y361587D01*
X505284Y361615D01*
Y361762D01*
X505277Y361797D01*
X505257Y361826D01*
X504318Y362765D01*
X504288Y362785D01*
X504253Y362792D01*
X502550D01*
X502515Y362785D01*
X502485Y362765D01*
X502399Y362679D01*
X502350Y362689D01*
X502341Y362698D01*
X502329Y362735D01*
X502315Y362805D01*
X502274Y362866D01*
X502213Y362907D01*
X502141Y362922D01*
X502068Y362907D01*
X502007Y362866D01*
X501966Y362805D01*
X501952Y362733D01*
X501962Y362684D01*
X501950Y362672D01*
X501930Y362643D01*
X501923Y362608D01*
Y361526D01*
X501930Y361491D01*
X501950Y361461D01*
X502018Y361393D01*
Y359879D01*
X501968Y359862D01*
X501908Y359941D01*
X501803Y360022D01*
X501708Y360061D01*
Y363683D01*
X501707Y363689D01*
X501722Y363804D01*
X501769Y363917D01*
X501843Y364015D01*
X501940Y364089D01*
X502054Y364136D01*
X502169Y364151D01*
X502175Y364150D01*
X505059D01*
X505065Y364151D01*
X505180Y364136D01*
D02*
G37*
%LPC*%
G36*
X505113Y354457D02*
X505041Y354443D01*
X504980Y354402D01*
X504939Y354341D01*
X504924Y354268D01*
X504939Y354196D01*
X504980Y354135D01*
X505041Y354094D01*
X505113Y354080D01*
X505185Y354094D01*
X505246Y354135D01*
X505287Y354196D01*
X505302Y354268D01*
X505287Y354341D01*
X505246Y354402D01*
X505185Y354443D01*
X505113Y354457D01*
D02*
G37*
G36*
X503060Y354556D02*
X502988Y354541D01*
X502927Y354500D01*
X502886Y354439D01*
X502872Y354367D01*
X502886Y354295D01*
X502927Y354234D01*
X502988Y354193D01*
X503060Y354178D01*
X503132Y354193D01*
X503194Y354234D01*
X503215Y354265D01*
X503309D01*
X503550Y354024D01*
X503536Y353976D01*
X503528Y353974D01*
X503467Y353933D01*
X503446Y353902D01*
X502992D01*
X502931Y353963D01*
X502939Y354000D01*
X502924Y354072D01*
X502883Y354133D01*
X502822Y354174D01*
X502750Y354189D01*
X502678Y354174D01*
X502617Y354133D01*
X502576Y354072D01*
X502561Y354000D01*
X502576Y353928D01*
X502617Y353867D01*
X502678Y353826D01*
X502750Y353811D01*
X502768Y353815D01*
X502781Y353799D01*
X502754Y353754D01*
X502731Y353758D01*
X502659Y353744D01*
X502598Y353703D01*
X502557Y353642D01*
X502542Y353570D01*
X502557Y353497D01*
X502598Y353436D01*
X502659Y353395D01*
X502731Y353381D01*
X502776Y353390D01*
X502848Y353318D01*
Y352896D01*
X502856Y352857D01*
X502878Y352823D01*
X502973Y352728D01*
X503007Y352706D01*
X503046Y352698D01*
X503950D01*
X503989Y352706D01*
X504009Y352719D01*
X504050Y352711D01*
X504122Y352726D01*
X504183Y352767D01*
X504224Y352828D01*
X504239Y352900D01*
X504224Y352972D01*
X504183Y353033D01*
X504122Y353074D01*
X504050Y353089D01*
X503978Y353074D01*
X503917Y353033D01*
X503876Y352972D01*
X503862Y352902D01*
X503088D01*
X503052Y352938D01*
Y353361D01*
X503044Y353400D01*
X503022Y353433D01*
X502914Y353541D01*
X502920Y353570D01*
X502905Y353642D01*
X502891Y353663D01*
X502894Y353667D01*
X502924Y353703D01*
X502950Y353698D01*
X503446D01*
X503467Y353667D01*
X503528Y353626D01*
X503600Y353611D01*
X503672Y353626D01*
X503733Y353667D01*
X503777D01*
X503792Y353645D01*
X503853Y353604D01*
X503925Y353590D01*
X503997Y353604D01*
X504058Y353645D01*
X504099Y353706D01*
X504114Y353778D01*
X504099Y353851D01*
X504058Y353912D01*
X503997Y353953D01*
X503925Y353967D01*
X503900Y353962D01*
X503423Y354439D01*
X503390Y354461D01*
X503351Y354469D01*
X503215D01*
X503194Y354500D01*
X503132Y354541D01*
X503060Y354556D01*
D02*
G37*
G36*
X505093Y355540D02*
X505021Y355525D01*
X504960Y355485D01*
X504919Y355423D01*
X504905Y355351D01*
X504919Y355279D01*
X504960Y355218D01*
X505021Y355177D01*
X505093Y355163D01*
X505165Y355177D01*
X505227Y355218D01*
X505268Y355279D01*
X505282Y355351D01*
X505268Y355423D01*
X505227Y355485D01*
X505165Y355525D01*
X505093Y355540D01*
D02*
G37*
G36*
X504800Y363689D02*
X504728Y363674D01*
X504667Y363633D01*
X504626Y363572D01*
X504625Y363571D01*
X504575D01*
X504574Y363572D01*
X504533Y363633D01*
X504472Y363674D01*
X504400Y363689D01*
X504328Y363674D01*
X504267Y363633D01*
X504226Y363572D01*
X504211Y363500D01*
X504226Y363428D01*
X504267Y363367D01*
X504328Y363326D01*
X504400Y363311D01*
X504472Y363326D01*
X504533Y363367D01*
X504574Y363428D01*
X504575Y363429D01*
X504625D01*
X504626Y363428D01*
X504667Y363367D01*
X504728Y363326D01*
X504800Y363311D01*
X504872Y363326D01*
X504933Y363367D01*
X504974Y363428D01*
X504989Y363500D01*
X504974Y363572D01*
X504933Y363633D01*
X504872Y363674D01*
X504800Y363689D01*
D02*
G37*
G36*
X503617Y356130D02*
X503545Y356116D01*
X503484Y356075D01*
X503443Y356014D01*
X503428Y355942D01*
X503443Y355870D01*
X503484Y355808D01*
X503545Y355767D01*
X503617Y355753D01*
X503689Y355767D01*
X503750Y355808D01*
X503791Y355870D01*
X503806Y355942D01*
X503791Y356014D01*
X503750Y356075D01*
X503689Y356116D01*
X503617Y356130D01*
D02*
G37*
%LPD*%
D34*
X502550Y356550D02*
X502831D01*
X502950Y356432D01*
D35*
X502296Y362200D02*
X504449D01*
X502350Y362500D02*
X502550Y362700D01*
X504495Y361850D02*
X504650D01*
X504265Y362080D02*
X504495Y361850D01*
X505322Y357132D02*
X505368D01*
X504449Y362200D02*
X504505Y362144D01*
X505192Y361454D02*
Y361762D01*
X504253Y362700D02*
X505192Y361762D01*
X502550Y362700D02*
X504253D01*
X505366Y357833D02*
X505368Y357831D01*
X505138Y357711D02*
X505368Y357481D01*
X502141Y362733D02*
X502210Y362664D01*
X502015Y362608D02*
X502141Y362733D01*
X502050Y357550D02*
X502295Y357305D01*
X502939Y356785D02*
X502951Y356796D01*
X502761Y356785D02*
X502939D01*
X502550Y357550D02*
X502585Y357585D01*
X502895Y357305D02*
X503150Y357050D01*
X503618Y356581D02*
X504468D01*
X502295Y357305D02*
X502895D01*
X502600Y357000D02*
X502850D01*
X503860Y357714D02*
X503862Y357711D01*
X505138D01*
X503811Y357593D02*
X503813Y357592D01*
X504862D01*
X504468Y356581D02*
X505018Y357132D01*
X504862Y357592D02*
X505322Y357132D01*
X504183Y356796D02*
X504518Y357132D01*
X502951Y356796D02*
X504183D01*
X503150Y357050D02*
X503700D01*
X502746Y356800D02*
X502761Y356785D01*
X502050Y357050D02*
X502300Y356800D01*
X502746D01*
X502585Y357585D02*
Y358215D01*
X503627Y357473D02*
X503722Y357379D01*
X502110Y358860D02*
X503496Y357473D01*
X503627D01*
X502230Y358909D02*
Y361481D01*
Y358909D02*
X503546Y357593D01*
X503811D01*
X502350Y358959D02*
X503596Y357714D01*
X503860D01*
X502485Y358994D02*
Y361700D01*
Y358994D02*
X503645Y357833D01*
X505366D01*
X502200Y358450D02*
X502350D01*
X502585Y358215D01*
X502780Y362080D02*
X504265D01*
X502565Y361865D02*
X502780Y362080D01*
X502534Y361650D02*
X502565Y361681D01*
Y361865D01*
X502350Y358959D02*
Y361531D01*
X502135Y362039D02*
X502296Y362200D01*
X502135Y361576D02*
Y362039D01*
Y361576D02*
X502230Y361481D01*
X502255Y361626D02*
X502350Y361531D01*
X502255Y361626D02*
Y361855D01*
X502350Y361950D01*
X502015Y361526D02*
X502110Y361431D01*
Y358860D02*
Y361431D01*
X502015Y361526D02*
Y362608D01*
D39*
X502950Y353800D02*
X503600D01*
X503925Y353778D02*
Y353793D01*
X503351Y354367D02*
X503925Y353793D01*
X503060Y354367D02*
X503351D01*
X503046Y352800D02*
X503950D01*
X504050Y352900D01*
X502950Y352896D02*
X503046Y352800D01*
X502950Y352896D02*
Y353361D01*
X502750Y354000D02*
X502950Y353800D01*
X502731Y353580D02*
X502950Y353361D01*
D41*
X501692Y352528D02*
D03*
X505542D02*
D03*
X501550Y358402D02*
D03*
Y359583D02*
D03*
D42*
X502700Y356050D02*
D03*
X501900D02*
D03*
X502300Y358050D02*
D03*
D43*
X503050Y355850D02*
D03*
X502534Y361650D02*
D03*
X502350Y361950D02*
D03*
Y362500D02*
D03*
X505113Y354268D02*
D03*
X505093Y355351D02*
D03*
X505368Y357132D02*
D03*
Y357481D02*
D03*
Y357831D02*
D03*
X504109Y358895D02*
D03*
X503322D02*
D03*
X502928Y360076D02*
D03*
Y360469D02*
D03*
Y360863D02*
D03*
X503322D02*
D03*
X503715D02*
D03*
X504109D02*
D03*
X504503D02*
D03*
X504896D02*
D03*
X505290D02*
D03*
Y358895D02*
D03*
X504503D02*
D03*
X502141Y362733D02*
D03*
X501944Y363619D02*
D03*
X505290Y363816D02*
D03*
X505192Y361454D02*
D03*
X503026Y362438D02*
D03*
X503060Y354367D02*
D03*
X504404Y353658D02*
D03*
X504050Y352900D02*
D03*
X503925Y353778D02*
D03*
X503600Y353800D02*
D03*
X504400Y354200D02*
D03*
X503250Y353050D02*
D03*
X502600Y352900D02*
D03*
Y353250D02*
D03*
X504650Y361850D02*
D03*
X504505Y362144D02*
D03*
X504400Y363500D02*
D03*
X504800D02*
D03*
X505290Y358501D02*
D03*
X504207Y355450D02*
D03*
X502337Y354268D02*
D03*
X503400Y354800D02*
D03*
X502928Y359682D02*
D03*
Y359288D02*
D03*
X503617Y355942D02*
D03*
X502750Y354000D02*
D03*
X502731Y353570D02*
D03*
X503715Y358895D02*
D03*
X502950Y356432D02*
D03*
X504798Y352792D02*
D03*
X502928Y358895D02*
D03*
X503618Y356581D02*
D03*
X502850Y357000D02*
D03*
X503722Y357379D02*
D03*
X505018Y357132D02*
D03*
X504518D02*
D03*
X503700Y357050D02*
D03*
X502200Y358450D02*
D03*
D44*
X505200Y353700D02*
D03*
D46*
X502050Y356550D02*
D03*
X502550D02*
D03*
X502050Y357050D02*
D03*
X502550D02*
D03*
X502050Y357550D02*
D03*
X502550D02*
D03*
D47*
X503050Y355550D02*
Y355850D01*
X503515Y355085D02*
X503518D01*
X503685Y354918D01*
Y354915D02*
Y354918D01*
Y354915D02*
X504400Y354200D01*
X503050Y355550D02*
X503515Y355085D01*
X504900Y353700D02*
X505200D01*
X504400Y354200D02*
X504900Y353700D01*
D48*
X505200Y352870D02*
X505542Y352528D01*
X505200Y352870D02*
Y353700D01*
M02*
