G04*
G04 #@! TF.GenerationSoftware,Altium Limited,CircuitStudio,1.5.2 (30)*
G04*
G04 Layer_Color=2238352*
%FSLAX24Y24*%
%MOIN*%
G70*
G01*
G75*
%ADD54R,0.0297X0.0257*%
%ADD55R,0.0434X0.0316*%
%ADD56R,0.0434X0.0395*%
%ADD57R,0.0592X0.0415*%
%ADD58R,0.0257X0.0297*%
%ADD59R,0.0395X0.0178*%
%ADD60R,0.0159X0.0710*%
%ADD61R,0.0415X0.0375*%
%ADD62R,0.0237X0.0198*%
%ADD63R,0.0237X0.0336*%
%ADD64R,0.0151X0.0230*%
%ADD65R,0.0230X0.0151*%
%ADD66R,0.0159X0.0218*%
%ADD67R,0.0316X0.0474*%
%ADD68R,0.0277X0.0356*%
%ADD69R,0.0415X0.0178*%
%ADD70R,0.0631X0.0722*%
%ADD71R,0.0316X0.0237*%
%ADD72C,0.0190*%
%ADD73R,0.0395X0.0789*%
%ADD74R,0.0375X0.0190*%
%ADD75R,0.0198X0.0395*%
%ADD76R,0.0395X0.0198*%
%ADD77R,0.0474X0.0867*%
%ADD78C,0.0883*%
%ADD79C,0.0180*%
D54*
X501944Y362950D02*
D03*
Y363304D02*
D03*
X503322Y356414D02*
D03*
Y356060D02*
D03*
X504601Y353461D02*
D03*
Y353107D02*
D03*
X504995Y353461D02*
D03*
Y353107D02*
D03*
X505290Y363146D02*
D03*
Y363501D02*
D03*
D55*
X501983Y362418D02*
D03*
Y361670D02*
D03*
X502889Y362044D02*
D03*
D56*
X502584Y362969D02*
D03*
Y363875D02*
D03*
D57*
X504601Y363855D02*
D03*
Y363186D02*
D03*
D58*
X504424Y355745D02*
D03*
X504778D02*
D03*
X503696Y362044D02*
D03*
X503341D02*
D03*
X503341Y361650D02*
D03*
X503696D02*
D03*
X503046Y357270D02*
D03*
X503400D02*
D03*
X502318Y354662D02*
D03*
X501963D02*
D03*
X503637Y355253D02*
D03*
X503991D02*
D03*
X503637Y355646D02*
D03*
X503991D02*
D03*
X503991Y354072D02*
D03*
X503637D02*
D03*
X503105Y354662D02*
D03*
X502751D02*
D03*
X504778Y355351D02*
D03*
X504424D02*
D03*
X503794Y352694D02*
D03*
X503440D02*
D03*
X503637Y354465D02*
D03*
X503991D02*
D03*
X503696Y362438D02*
D03*
X503341D02*
D03*
D59*
X505091Y356187D02*
D03*
Y356384D02*
D03*
Y356581D02*
D03*
Y356778D02*
D03*
X503954Y356187D02*
D03*
Y356384D02*
D03*
Y356581D02*
D03*
Y356778D02*
D03*
D60*
X504522Y356482D02*
D03*
D61*
X502761Y358165D02*
D03*
Y357752D02*
D03*
X503292Y358165D02*
D03*
Y357752D02*
D03*
D62*
X503095Y356867D02*
D03*
Y356688D02*
D03*
D63*
X503351Y356778D02*
D03*
D64*
X504916Y358250D02*
D03*
X504759D02*
D03*
X504601D02*
D03*
X504444D02*
D03*
X504286D02*
D03*
X504129D02*
D03*
Y357470D02*
D03*
X504286D02*
D03*
X504444D02*
D03*
X504601D02*
D03*
X504759D02*
D03*
X504916D02*
D03*
D65*
X503975Y358018D02*
D03*
Y357860D02*
D03*
Y357703D02*
D03*
X505070D02*
D03*
Y357860D02*
D03*
Y358018D02*
D03*
D66*
X504680Y357968D02*
D03*
X504522D02*
D03*
X504365D02*
D03*
Y357752D02*
D03*
X504522D02*
D03*
X504680D02*
D03*
D67*
X505349Y359288D02*
D03*
Y360469D02*
D03*
X504837D02*
D03*
Y359288D02*
D03*
D68*
X503656Y354859D02*
D03*
X503971D02*
D03*
D69*
X503190Y355056D02*
D03*
Y355253D02*
D03*
Y355450D02*
D03*
Y355646D02*
D03*
X502076Y355056D02*
D03*
Y355253D02*
D03*
Y355450D02*
D03*
Y355646D02*
D03*
D70*
X502633Y355351D02*
D03*
D71*
X503060Y353304D02*
D03*
Y353560D02*
D03*
Y353816D02*
D03*
Y354072D02*
D03*
X501958Y353304D02*
D03*
Y353560D02*
D03*
Y353816D02*
D03*
Y354072D02*
D03*
D72*
X504628Y353875D02*
D03*
Y354072D02*
D03*
X504798Y353973D02*
D03*
X504968Y353875D02*
D03*
Y354072D02*
D03*
D73*
X505113Y354761D02*
D03*
X504483D02*
D03*
D74*
X504040Y353186D02*
D03*
Y353383D02*
D03*
Y353580D02*
D03*
X503587Y353186D02*
D03*
Y353383D02*
D03*
Y353580D02*
D03*
D75*
X504503Y361507D02*
D03*
X504700D02*
D03*
X504897D02*
D03*
Y362582D02*
D03*
X504700D02*
D03*
X504503D02*
D03*
D76*
X505237Y361650D02*
D03*
Y361847D02*
D03*
Y362044D02*
D03*
Y362241D02*
D03*
Y362438D02*
D03*
X504162D02*
D03*
Y362241D02*
D03*
Y362044D02*
D03*
Y361847D02*
D03*
Y361650D02*
D03*
D77*
X503341Y363272D02*
D03*
X503893D02*
D03*
D78*
X501692Y352528D02*
D03*
X505542D02*
D03*
X501550Y358402D02*
D03*
Y359583D02*
D03*
D79*
X502700Y356050D02*
D03*
X501900D02*
D03*
X502300Y358050D02*
D03*
M02*
