M48
;Layer_Color=2894892
;FILE_FORMAT=2:4
INCH,LZ
;TYPE=PLATED
T1F00S00C0.0120
T2F00S00C0.0150
T3F00S00C0.0402
;TYPE=NON_PLATED
T4F00S00C0.0390
%
T01
X50529Y358895
Y358501
X505368Y357831
Y357481
Y357132
X505018
X504518
X5037Y35705
X503722Y357379
X503618Y356581
X503617Y355942
X50305Y35585
X50295Y356432
X50285Y357
X502928Y358895
Y359288
X503322Y358895
X503715
X504109
X504503
X5022Y35845
X502337Y354268
X50275Y354
X502731Y35357
X5026Y35325
Y3529
X50325Y35305
X50405Y3529
X504798Y352792
X504404Y353658
X5044Y3542
X505113Y354268
X505093Y355351
X504207Y35545
X5034Y3548
X50306Y354367
X5036Y3538
X503925Y353778
X502928Y359682
Y360076
Y360469
Y360863
X503322
X503715
X504109
X504503
X504896
X50529
X505192Y361454
X50465Y36185
X504505Y362144
X5044Y3635
X5048
X50529Y363816
X501944Y363619
X502141Y362733
X50235Y3625
Y36195
X502534Y36165
X503026Y362438
T02
X5052Y3537
T03
X50155Y358402
X501692Y352528
X505542
X50155Y359583
T04
X5023Y35805
X5027Y35605
X5019
M30
